<?xml version="1.0" encoding="UTF-8"?>
<svg id="Capa_1" data-name="Capa 1" xmlns="http://www.w3.org/2000/svg" xmlns:xlink="http://www.w3.org/1999/xlink" viewBox="0 0 917 240">
  <defs>
    <style>
      .cls-1 {
        fill: url(#Degradado_sin_nombre_3);
      }

      .cls-2 {
        fill: url(#Degradado_sin_nombre_2);
      }

      .cls-3 {
        fill: #2c2560;
      }
    </style>
    <linearGradient id="Degradado_sin_nombre_3" data-name="Degradado sin nombre 3" x1="241.03" y1="195.59" x2="361.22" y2="128.43" gradientUnits="userSpaceOnUse">
      <stop offset="0" stop-color="#2c2560"/>
      <stop offset="1" stop-color="#9078b4"/>
    </linearGradient>
    <linearGradient id="Degradado_sin_nombre_2" data-name="Degradado sin nombre 2" x1="214.66" y1="154.14" x2="342.61" y2="86.05" gradientUnits="userSpaceOnUse">
      <stop offset="0" stop-color="#9078b4"/>
      <stop offset="1" stop-color="#2c2560"/>
    </linearGradient>
  </defs>
  <g>
    <path class="cls-1" d="m359.66,127.73c4.53,7.84,4.53,17.51,0,25.35l-2.94,5.1-8.89,15.41h-.02l-11.84,20.51c-4.53,7.85-12.9,12.68-21.96,12.68h-47.37c-9.06,0-17.43-4.83-21.96-12.68h0s-.05-.08-.06-.11c-7.24-12.63-7.24-28.17,0-40.8l7.38-12.79,5.13,8.89,14.02,24.3h38.34l14.02-24.3,5.13-8.89,7.32-12.68s.05-.08.06-.11c7.24-12.63,7.24-28.17,0-40.8l11.77,20.4h.02l8.89,15.41,2.95,5.1Z"/>
    <path class="cls-2" d="m336.04,127.62s-.05.08-.06.11l-7.32,12.68-5.13-8.89-14.02-24.3h-38.34l-14.02,24.3-5.13,8.89-7.38,12.79c-7.24,12.63-7.24,28.17,0,40.8l-11.77-20.4h-.02l-8.89-15.41-2.94-5.1c-4.53-7.84-4.53-17.51,0-25.35l2.95-5.1,8.89-15.41h.02l11.84-20.51c4.53-7.85,12.9-12.68,21.96-12.68h47.37c9.06,0,17.43,4.83,21.96,12.68h0s.05.08.06.11c7.24,12.63,7.24,28.17,0,40.8Z"/>
  </g>
  <path class="cls-3" d="m31.13,151.29h42.91c.75,5.09,3.07,9.59,6.96,13.48,3.89,3.9,9.1,6.89,15.61,8.99,6.51,2.1,14.11,3.14,22.8,3.14,12.43,0,22.2-1.72,29.32-5.17,7.11-3.44,10.67-8.31,10.67-14.6,0-4.79-2.06-8.5-6.18-11.12-4.12-2.62-11.79-4.53-23.03-5.73l-32.57-3.37c-22.62-2.25-38.98-7.49-49.09-15.73-10.11-8.24-15.16-19.47-15.16-33.7,0-11.23,3.33-20.81,10-28.75,6.66-7.94,16.02-14,28.08-18.2,12.05-4.19,26.17-6.29,42.35-6.29s30.18,2.32,42.46,6.96c12.28,4.64,22.09,11.09,29.43,19.32,7.34,8.24,11.31,17.9,11.91,28.98h-42.91c-.6-4.64-2.66-8.57-6.18-11.79-3.52-3.22-8.24-5.76-14.15-7.64-5.92-1.87-12.99-2.81-21.23-2.81-11.38,0-20.41,1.61-27.07,4.83-6.67,3.22-10,7.83-10,13.82,0,4.49,1.98,8.01,5.95,10.56,3.97,2.55,11.04,4.42,21.23,5.62l34.37,3.82c15.73,1.65,28.31,4.27,37.74,7.86,9.44,3.59,16.25,8.54,20.44,14.83,4.19,6.29,6.29,14.23,6.29,23.81,0,11.53-3.48,21.6-10.45,30.22-6.96,8.61-16.7,15.32-29.2,20.11-12.51,4.79-27.07,7.19-43.69,7.19s-32.31-2.47-45.27-7.41c-12.96-4.94-23.14-11.79-30.55-20.56-7.41-8.76-11.35-18.98-11.79-30.66Z"/>
  <path class="cls-3" d="m373.63,78.73h42.23l7.64,46.05v82h-41.78v-85.37l-8.09-42.68Zm110.98-1.8v35.94c-4.04-.9-8.05-1.57-12.02-2.02-3.97-.45-7.6-.67-10.9-.67-7.19,0-13.67,1.46-19.43,4.38-5.77,2.92-10.33,7.53-13.7,13.82-3.37,6.29-5.05,14.46-5.05,24.49l-8.31-10.33c1.05-9.13,2.77-17.75,5.17-25.84,2.39-8.09,5.69-15.24,9.88-21.45,4.19-6.21,9.4-11.12,15.61-14.71,6.21-3.59,13.74-5.39,22.58-5.39,2.55,0,5.24.15,8.09.45,2.84.3,5.54.75,8.09,1.35Z"/>
  <path class="cls-3" d="m501.45,33.8h41.56v172.98h-41.56V33.8Z"/>
  <path class="cls-3" d="m696.67,142.75c-2.25,13.63-6.51,25.5-12.8,35.61-6.29,10.11-14.23,17.97-23.81,23.59-9.59,5.62-20.37,8.43-32.35,8.43-12.58,0-23.63-2.85-33.14-8.54-9.51-5.69-16.96-13.59-22.35-23.7-5.39-10.11-8.09-21.9-8.09-35.38s2.7-25.27,8.09-35.38c5.39-10.11,12.84-18.01,22.35-23.7,9.51-5.69,20.56-8.54,33.14-8.54s22.76,2.81,32.35,8.42c9.58,5.62,17.56,13.44,23.92,23.48,6.36,10.03,10.59,21.94,12.69,35.72Zm-90.31,0c0,6.89,1.42,12.99,4.27,18.31,2.84,5.32,6.77,9.51,11.79,12.58,5.02,3.07,10.82,4.61,17.41,4.61s12.84-1.53,18.76-4.61c5.91-3.07,11.12-7.26,15.61-12.58,4.49-5.31,7.86-11.42,10.11-18.31-2.25-6.89-5.62-12.99-10.11-18.31-4.49-5.31-9.7-9.51-15.61-12.58-5.92-3.07-12.17-4.61-18.76-4.61s-12.39,1.54-17.41,4.61c-5.02,3.07-8.95,7.27-11.79,12.58-2.85,5.32-4.27,11.42-4.27,18.31Zm79.97,64.02l-5.62-46.5,6.07-17.52-6.07-17.3,5.62-46.73h43.36l-7.86,64.02,7.86,64.02h-43.36Z"/>
  <path class="cls-3" d="m902,153.54c-1.2,11.23-5.36,21.12-12.47,29.65-7.12,8.54-16.25,15.2-27.41,19.99-11.16,4.79-23.7,7.19-37.63,7.19-15.43,0-29.06-2.85-40.89-8.54-11.83-5.69-21.04-13.63-27.63-23.81-6.59-10.18-9.88-21.94-9.88-35.27s3.29-25.08,9.88-35.27c6.59-10.18,15.8-18.12,27.63-23.81,11.83-5.69,25.46-8.54,40.89-8.54,13.93,0,26.47,2.4,37.63,7.19,11.15,4.79,20.29,11.42,27.41,19.88,7.11,8.46,11.27,18.39,12.47,29.77h-41.56c-1.65-8.24-5.73-14.53-12.24-18.87-6.51-4.34-14.42-6.52-23.7-6.52-7.34,0-13.74,1.43-19.21,4.27-5.47,2.85-9.7,6.96-12.69,12.35-3,5.39-4.49,11.91-4.49,19.54s1.49,14.15,4.49,19.54c2.99,5.39,7.22,9.51,12.69,12.36,5.47,2.85,11.87,4.27,19.21,4.27,9.44,0,17.37-2.28,23.81-6.85,6.44-4.57,10.48-10.74,12.13-18.53h41.56Z"/>
</svg>